<?xml version="1.0" standalone="no"?>
<!DOCTYPE svg PUBLIC "-//W3C//DTD SVG 20010904//EN"
 "http://www.w3.org/TR/2001/REC-SVG-20010904/DTD/svg10.dtd">
<svg version="1.0" xmlns="http://www.w3.org/2000/svg"
 width="27.000000pt" height="27.000000pt" viewBox="0 0 27.000000 27.000000"
 preserveAspectRatio="xMidYMid meet">

<g transform="translate(0.000000,27.000000) scale(0.100000,-0.100000)"
fill="#000000" stroke="none">
<path d="M82 227 c-24 -14 -57 -55 -49 -63 11 -11 57 21 66 47 5 16 9 29 8 29
-1 -1 -12 -6 -25 -13z"/>
<path d="M173 225 c4 -9 7 -23 7 -30 0 -7 14 -18 30 -24 17 -5 30 -7 30 -3 0
14 -31 52 -52 63 -18 10 -20 9 -15 -6z"/>
<path d="M42 74 c7 -14 24 -32 39 -40 l28 -14 -10 29 c-6 15 -21 33 -35 40
-34 15 -35 15 -22 -15z"/>
<path d="M209 88 c-18 -6 -29 -18 -32 -36 -3 -15 -4 -28 -2 -30 2 -2 18 10 35
26 39 34 38 53 -1 40z"/>
</g>
</svg>
